<?xml version="1.0" standalone="no"?>
<!DOCTYPE svg PUBLIC "-//W3C//DTD SVG 20010904//EN"
 "http://www.w3.org/TR/2001/REC-SVG-20010904/DTD/svg10.dtd">
<svg version="1.0" xmlns="http://www.w3.org/2000/svg"
 width="900.000000pt" height="354.000000pt" viewBox="0 0 900.000000 354.000000"
 preserveAspectRatio="xMidYMid meet">
<metadata>
Created by potrace 1.10, written by Peter Selinger 2001-2011
</metadata>
<g transform="translate(0.000000,354.000000) scale(0.100000,-0.100000)"
fill="#000000" stroke="none">
<path d="M4285 3395 c-45 -24 -61 -41 -80 -88 -47 -116 -55 -128 -91 -143 -59
-25 -95 -6 -160 82 -49 66 -58 74 -88 74 -47 0 -69 -34 -91 -135 -16 -78 -107
-121 -161 -77 -24 18 -54 72 -54 95 0 7 -10 23 -23 35 -18 17 -36 22 -80 22
-75 0 -115 -34 -147 -122 -24 -67 -67 -118 -101 -118 -51 0 -129 63 -129 105
0 24 -75 92 -109 100 -23 5 -44 1 -79 -17 -45 -22 -48 -25 -68 -97 -21 -77
-56 -121 -95 -121 -32 0 -95 46 -126 92 -15 24 -44 51 -62 60 -29 15 -38 15
-60 3 -14 -7 -37 -25 -51 -40 -85 -93 -170 -111 -262 -55 -96 59 -184 53 -250
-17 -109 -115 -125 -128 -186 -145 -34 -10 -68 -18 -76 -18 -9 0 -30 -6 -48
-14 -18 -7 -66 -24 -106 -37 -41 -13 -76 -27 -79 -31 -2 -5 -21 -8 -42 -8 -44
0 -119 -21 -206 -57 -47 -20 -93 -29 -210 -39 -82 -7 -177 -18 -210 -24 -33
-6 -132 -13 -220 -14 -88 -1 -171 -6 -185 -10 -29 -8 -50 -37 -60 -83 -10 -42
9 -69 54 -77 48 -9 93 -49 99 -88 3 -18 15 -67 27 -108 12 -41 25 -91 29 -110
12 -53 39 -112 49 -106 5 3 12 25 15 48 14 104 38 235 49 263 22 57 71 81 100
48 15 -17 21 -37 54 -179 7 -34 23 -82 33 -108 34 -77 51 -60 76 74 10 52 24
114 32 138 16 45 50 76 75 67 19 -7 58 -85 58 -114 0 -12 6 -34 14 -49 7 -15
23 -65 35 -111 23 -94 24 -96 45 -88 25 10 47 75 62 185 20 138 25 149 70 158
55 10 83 -10 106 -76 11 -30 23 -77 28 -105 11 -66 34 -128 48 -133 14 -4 42
56 42 89 0 12 7 45 15 73 8 28 17 62 19 76 7 35 42 70 70 70 13 0 38 -10 56
-22 27 -19 38 -37 57 -98 12 -41 23 -84 23 -95 0 -33 33 -115 46 -115 6 0 17
6 23 14 14 17 41 151 46 235 3 36 9 69 15 75 6 6 31 11 56 11 54 0 69 -15 79
-83 4 -26 13 -59 21 -74 8 -15 14 -39 14 -53 0 -27 25 -44 41 -28 9 9 29 75
50 166 12 52 38 77 80 77 34 0 56 -25 74 -87 8 -28 22 -56 30 -63 16 -14 25 3
46 85 16 62 42 82 114 88 33 2 97 10 143 17 96 15 112 9 93 -37 -17 -40 -279
-305 -321 -325 -19 -9 -51 -23 -70 -32 -19 -8 -78 -35 -129 -61 -63 -30 -108
-45 -134 -45 -38 0 -120 -17 -222 -46 -86 -24 -175 -36 -300 -39 -82 -2 -132
-8 -157 -19 -21 -9 -48 -16 -61 -16 -14 0 -41 -7 -60 -15 -25 -10 -73 -15
-149 -16 -126 0 -307 -14 -383 -28 -32 -6 -91 -6 -165 1 -157 14 -200 -5 -155
-69 13 -18 29 -22 127 -28 160 -11 717 -9 813 3 44 5 98 14 120 20 107 28 155
34 240 28 50 -4 160 -10 245 -15 176 -10 243 -26 277 -65 28 -33 28 -42 2
-108 -17 -42 -20 -65 -15 -111 7 -68 -8 -113 -49 -145 -39 -31 -63 -28 -168
22 -50 24 -107 46 -125 50 -19 3 -80 28 -135 55 -125 60 -211 91 -255 91 -18
0 -53 5 -78 11 -34 9 -60 9 -107 -1 -128 -26 -262 -74 -252 -90 7 -12 94 -12
194 -1 138 16 293 -22 400 -99 46 -34 50 -49 21 -75 -20 -18 -47 -17 -105 3
-148 52 -257 55 -360 8 -33 -15 -67 -31 -75 -36 -8 -6 -29 -16 -46 -24 -35
-16 -67 -45 -112 -102 -34 -45 -41 -74 -17 -74 8 0 15 4 15 9 0 11 162 111
179 111 5 0 25 6 43 14 96 40 124 40 263 1 99 -27 184 -45 214 -45 33 0 71
-33 71 -62 0 -33 -37 -41 -149 -34 -109 6 -126 3 -246 -42 -127 -47 -174 -84
-230 -180 -65 -110 -60 -142 12 -79 42 37 145 115 183 138 68 42 256 59 375
34 51 -10 101 -14 140 -11 68 7 200 -6 262 -25 68 -21 141 7 224 85 36 34 81
68 100 75 85 32 120 53 159 99 46 53 80 139 80 203 0 20 14 71 31 114 32 79
33 86 13 206 -7 43 11 83 62 136 19 20 48 61 64 92 33 66 61 94 115 116 44 18
105 72 105 92 0 7 6 27 14 45 8 18 22 53 32 78 28 72 47 85 153 103 91 16 96
16 138 -3 55 -24 73 -63 66 -138 -8 -69 11 -150 53 -237 21 -44 34 -85 34
-110 0 -31 8 -50 35 -84 41 -51 43 -63 14 -92 -18 -18 -28 -20 -82 -14 -34 4
-73 13 -87 20 -96 47 -95 47 -221 46 -128 -1 -192 -15 -251 -55 -55 -36 2 -48
102 -21 89 24 135 20 204 -19 104 -57 209 -88 319 -94 90 -4 100 -7 114 -28
14 -22 14 -26 -1 -49 -10 -14 -29 -31 -44 -36 -32 -13 -135 -4 -212 18 -80 22
-280 20 -323 -4 -30 -17 -106 -70 -117 -83 -3 -3 -30 -25 -60 -49 -55 -43 -90
-85 -90 -108 0 -20 16 -15 45 11 24 23 41 33 130 79 110 57 177 62 380 27 108
-19 151 -21 252 -16 122 6 122 6 138 -18 21 -32 8 -57 -42 -82 -32 -16 -63
-19 -208 -20 -174 0 -252 -11 -312 -44 -56 -30 -198 -166 -221 -213 -12 -24
-22 -49 -22 -56 0 -18 23 -13 50 12 43 40 124 93 150 100 14 3 50 13 80 23 39
11 103 17 220 19 320 7 363 17 466 119 54 53 64 70 84 135 15 49 21 87 17 114
-5 33 1 55 25 107 27 59 29 71 23 130 -9 90 -21 124 -72 207 -48 77 -50 92
-28 215 8 44 -7 94 -46 157 -54 84 -27 179 60 218 81 37 105 43 182 52 55 6
99 19 164 50 79 37 95 41 165 41 l77 0 74 -54 c117 -84 146 -96 239 -96 49 0
92 5 108 14 40 20 104 28 134 17 14 -5 38 -26 54 -46 30 -40 31 -38 -31 -139
-16 -28 -26 -63 -31 -115 -6 -65 -4 -81 14 -116 11 -22 23 -51 25 -65 3 -14
17 -56 31 -93 30 -80 32 -108 9 -148 -23 -38 -78 -47 -164 -24 -35 9 -99 18
-142 20 -43 2 -95 9 -114 16 -23 7 -56 9 -92 4 -31 -4 -83 -10 -116 -14 -68
-8 -99 -21 -170 -71 -58 -40 -74 -58 -75 -82 0 -20 14 -16 105 27 68 31 179
58 218 52 133 -21 178 -30 217 -44 25 -9 79 -21 121 -27 42 -6 84 -17 93 -25
43 -36 -9 -101 -81 -101 -21 0 -86 5 -145 12 -109 11 -128 9 -220 -24 -71 -26
-209 -166 -251 -256 -24 -51 6 -41 142 51 130 88 169 98 366 103 93 2 188 6
210 9 74 10 111 -52 60 -99 -29 -27 -65 -36 -142 -36 -80 0 -165 -45 -314
-164 -143 -114 -235 -216 -195 -216 12 0 106 47 236 118 66 36 95 50 140 67
25 9 52 20 60 25 32 16 128 39 200 49 140 19 236 56 285 108 24 27 85 139 85
157 0 5 26 43 58 85 69 92 86 122 101 184 8 33 8 53 1 67 -5 10 -10 29 -10 42
0 13 -6 32 -13 43 -7 11 -28 55 -47 98 l-33 78 18 84 c17 84 18 86 77 137 33
28 77 77 98 108 21 31 57 69 81 85 39 28 49 30 123 29 45 0 111 -4 147 -9 55
-6 71 -5 90 9 30 21 80 20 127 -1 29 -12 66 -16 170 -15 130 2 135 1 168 -25
19 -14 40 -35 46 -47 14 -27 38 -159 38 -216 0 -59 24 -135 54 -175 13 -17 63
-57 110 -89 128 -86 152 -128 102 -175 -21 -20 -32 -22 -78 -19 -64 6 -168 45
-233 88 -55 36 -170 87 -225 100 -45 10 -73 9 -150 -3 -52 -8 -117 -24 -145
-35 -27 -11 -63 -25 -79 -31 -21 -8 -26 -15 -18 -23 11 -11 29 -9 165 13 69
11 84 10 140 -6 70 -21 97 -34 181 -88 32 -21 88 -48 125 -59 36 -11 80 -26
96 -33 17 -8 49 -17 72 -20 24 -4 53 -15 65 -25 l23 -18 -20 -22 c-19 -21 -26
-22 -111 -17 -92 6 -156 18 -229 43 -23 8 -50 14 -62 14 -11 0 -38 7 -59 16
-40 17 -59 15 -154 -11 -105 -29 -142 -57 -208 -158 -51 -76 -42 -99 21 -59
115 74 147 88 207 96 80 10 232 -10 294 -38 57 -26 153 -56 182 -56 10 0 38
-9 62 -20 87 -39 28 -96 -88 -83 -70 7 -271 -12 -320 -31 -110 -42 -129 -55
-227 -152 -94 -92 -119 -124 -94 -124 21 0 139 56 189 89 89 60 133 78 188 79
28 0 69 6 90 12 28 8 64 9 129 2 86 -10 219 -3 275 14 14 4 39 18 56 30 17 13
64 35 105 49 139 46 153 53 193 92 23 22 57 49 77 61 30 18 39 32 55 84 10 35
30 81 45 103 32 48 41 93 33 155 -5 37 -17 60 -60 111 -30 35 -57 75 -60 89
-17 84 -28 105 -100 181 -41 45 -74 89 -74 100 0 80 109 109 275 74 39 -8 121
-15 184 -15 113 0 115 0 180 -37 77 -43 91 -56 113 -103 52 -111 58 -143 37
-197 -6 -15 -15 -50 -19 -78 -4 -27 -18 -75 -30 -105 -20 -51 -22 -73 -24
-280 -2 -209 -3 -229 -25 -280 -12 -30 -33 -66 -45 -80 -13 -14 -33 -42 -45
-62 -30 -51 -114 -123 -181 -156 l-55 -27 -300 -6 c-280 -5 -304 -7 -360 -28
-33 -12 -103 -33 -156 -47 -99 -25 -139 -40 -198 -75 -54 -32 -131 -57 -196
-62 -71 -7 -302 6 -400 23 -38 6 -113 18 -165 26 -52 8 -113 21 -135 29 -96
33 -162 40 -395 40 -228 0 -304 -7 -385 -37 -32 -12 -208 -28 -310 -29 -33 0
-204 3 -380 7 -420 9 -484 8 -531 -6 -25 -8 -168 -15 -404 -21 -365 -8 -451
-16 -510 -50 -37 -21 -346 -18 -420 4 -30 9 -75 18 -100 21 -25 3 -76 10 -114
16 -66 11 -177 10 -367 -6 -50 -4 -84 -2 -98 5 -29 16 -664 17 -704 2 -42 -16
-88 -13 -175 10 -42 12 -91 25 -108 29 -27 6 -106 53 -155 93 -14 11 -71 89
-96 132 -40 69 -153 307 -153 321 0 16 -39 54 -56 54 -8 0 -19 -11 -25 -24 -9
-19 -7 -33 10 -71 26 -59 26 -82 1 -120 -27 -40 -26 -72 3 -80 28 -9 77 -55
77 -73 0 -7 -12 -33 -26 -58 -31 -53 -24 -69 38 -77 48 -6 61 -21 53 -62 -18
-105 -18 -101 6 -124 18 -16 31 -21 49 -16 54 15 121 17 135 5 10 -8 15 -31
15 -69 0 -76 19 -103 68 -99 26 2 40 9 48 25 46 95 102 84 177 -35 29 -45 65
-66 94 -55 25 8 63 44 63 58 0 26 82 85 119 85 32 0 80 -48 92 -93 6 -23 22
-57 35 -74 44 -58 113 -38 156 44 26 51 54 73 92 73 27 0 43 -11 90 -60 82
-86 124 -91 187 -24 71 75 84 84 115 84 28 0 37 -8 70 -58 51 -77 70 -91 123
-92 33 0 52 7 82 31 75 59 132 48 165 -30 18 -44 42 -71 73 -82 31 -12 79 17
116 71 48 69 98 53 175 -54 38 -52 96 -81 144 -70 21 4 56 32 107 85 67 70 80
79 112 79 31 0 41 -7 73 -47 53 -68 72 -83 105 -83 60 0 92 29 122 111 22 59
49 83 92 83 40 0 77 -30 96 -77 43 -110 114 -102 239 27 42 44 47 46 98 46 53
0 55 -1 105 -56 99 -107 171 -111 242 -14 32 44 80 62 115 45 14 -7 39 -31 57
-53 36 -45 76 -57 132 -42 20 5 44 20 53 32 9 13 31 42 48 66 35 48 70 66 115
58 36 -7 53 -25 79 -84 26 -57 80 -105 109 -96 38 11 82 50 100 88 9 20 25 52
34 72 17 36 57 64 91 64 31 0 59 -31 85 -95 27 -65 53 -83 99 -72 25 7 36 16
96 87 27 32 35 35 82 35 44 0 55 -4 76 -28 13 -15 24 -35 24 -44 0 -9 9 -31
21 -49 19 -32 24 -34 76 -34 54 0 56 1 114 59 64 63 97 76 160 65 33 -6 109
-50 109 -63 0 -14 67 -79 97 -95 68 -35 150 -8 190 63 37 65 63 91 90 91 24 0
33 -9 101 -96 46 -59 89 -75 129 -49 30 20 83 93 83 114 0 9 14 33 31 54 27
32 36 37 74 37 41 0 47 -4 87 -52 66 -80 107 -117 135 -124 35 -9 85 19 104
59 45 94 55 110 77 128 14 10 31 19 38 19 21 0 72 -51 92 -90 19 -39 74 -80
107 -80 35 0 70 34 100 97 39 83 60 103 111 103 43 0 56 -10 134 -109 14 -17
40 -36 58 -42 38 -13 96 -6 118 12 27 22 46 82 53 163 6 77 7 81 39 99 31 18
36 19 91 3 80 -22 106 -20 142 12 27 24 31 34 32 83 1 38 -4 65 -16 82 -9 15
-17 44 -17 66 0 54 35 74 113 65 43 -5 60 -3 83 12 45 28 64 56 64 97 0 58
-22 98 -83 150 -46 39 -57 55 -57 78 0 69 65 110 195 125 63 7 119 33 135 64
14 27 12 105 -4 143 -19 45 -72 90 -136 116 -77 32 -100 56 -100 103 0 34 5
42 49 73 103 74 129 150 74 215 -14 17 -36 36 -47 41 -48 22 -70 39 -88 67
l-19 31 31 75 c29 70 30 76 16 104 -20 39 -34 49 -83 57 -50 8 -106 43 -111
69 -2 10 17 49 43 86 52 75 53 95 6 123 -42 24 -86 21 -169 -13 -69 -28 -75
-29 -102 -15 -35 18 -47 39 -56 96 -8 50 -50 99 -84 99 -33 0 -80 -28 -136
-81 -29 -26 -63 -51 -77 -54 -34 -9 -85 19 -105 58 -30 56 -79 97 -118 97 -31
0 -91 -22 -104 -39 -3 -4 -24 -21 -47 -40 -35 -26 -52 -33 -90 -33 -42 0 -51
4 -78 37 -91 109 -99 115 -157 115 -62 0 -83 -12 -123 -70 -33 -47 -70 -70
-115 -70 -44 0 -79 21 -129 80 -24 28 -58 59 -77 67 -30 15 -35 15 -58 -1 -15
-9 -37 -34 -50 -55 -38 -59 -54 -71 -96 -71 -30 0 -43 6 -64 31 -14 17 -26 40
-26 53 0 49 -61 92 -107 75 -13 -5 -36 -30 -53 -57 -16 -26 -41 -55 -55 -62
-23 -12 -30 -12 -61 5 -18 10 -45 38 -59 61 -44 75 -97 86 -149 30 -17 -19
-46 -51 -64 -70 -56 -61 -112 -46 -156 41 -9 18 -16 47 -16 65 0 42 -38 109
-70 126 -39 20 -97 6 -152 -35 -26 -21 -48 -40 -48 -44 0 -13 -60 -31 -85 -25
-43 11 -65 60 -65 147 0 86 -12 112 -56 112 -22 0 -36 -10 -59 -38 -87 -110
-137 -134 -199 -95 -27 16 -38 32 -46 63 -6 23 -15 58 -20 78 -6 20 -10 45
-10 56 0 53 -104 80 -149 39 -26 -23 -61 -90 -61 -116 0 -11 -13 -34 -29 -52
-25 -28 -35 -32 -78 -32 -69 0 -94 23 -148 130 -26 51 -56 101 -68 112 -31 29
-85 36 -122 17z m-1801 -601 c98 -21 210 -66 214 -84 2 -10 -20 -27 -65 -49
-180 -88 -203 -93 -428 -88 -198 5 -303 21 -334 52 -15 15 -14 18 13 38 109
81 223 121 396 137 121 11 129 11 204 -6z"/>
<path d="M2196 2734 c-9 -9 -16 -32 -16 -55 0 -35 4 -41 36 -56 34 -17 37 -17
72 2 30 16 38 27 40 53 5 48 -20 72 -74 72 -25 0 -49 -6 -58 -16z"/>
</g>
</svg>
