<?xml version="1.0" standalone="no"?>
<!DOCTYPE svg PUBLIC "-//W3C//DTD SVG 20010904//EN"
 "http://www.w3.org/TR/2001/REC-SVG-20010904/DTD/svg10.dtd">
<svg version="1.0" xmlns="http://www.w3.org/2000/svg"
 width="300.000000pt" height="123.000000pt" viewBox="0 0 300.000000 123.000000"
 preserveAspectRatio="xMidYMid meet">
<metadata>
Created by potrace 1.10, written by Peter Selinger 2001-2011
</metadata>
<g transform="translate(0.000000,123.000000) scale(0.100000,-0.100000)"
fill="#000000" stroke="none">
<path d="M400 961 c-78 -25 -127 -70 -162 -146 -18 -41 -23 -72 -26 -171 -5
-149 11 -215 65 -275 63 -70 101 -84 228 -84 83 0 122 5 158 18 l47 19 0 174
0 174 -115 0 -115 0 0 -60 0 -60 45 0 46 0 -3 -67 -3 -68 -62 0 c-113 0 -156
65 -150 226 5 141 50 193 165 194 37 0 84 -4 104 -8 37 -8 37 -7 47 30 18 72
18 76 -14 92 -34 17 -214 26 -255 12z"/>
<path d="M1357 944 c-4 -4 -7 -153 -7 -331 l0 -323 70 0 70 0 0 140 0 140 95
0 95 0 0 -140 0 -141 73 3 72 3 0 325 0 325 -70 0 -70 0 -3 -122 -3 -123 -94
0 -94 0 -3 123 -3 122 -60 3 c-34 2 -64 0 -68 -4z"/>
<path d="M2377 944 c-4 -4 -7 -153 -7 -331 l0 -323 50 0 c38 0 50 4 50 15 0
19 -2 19 45 -5 52 -26 147 -27 195 -2 56 31 74 79 78 210 3 98 1 118 -17 155
-37 77 -138 109 -226 73 l-34 -15 -3 112 -3 112 -60 3 c-34 2 -64 0 -68 -4z
m256 -336 c26 -31 25 -170 -3 -198 -22 -22 -54 -25 -94 -10 -26 9 -26 11 -26
114 l0 105 33 10 c40 11 67 5 90 -21z"/>
<path d="M802 907 c-37 -40 -28 -98 19 -123 55 -28 109 8 109 71 0 66 -83 100
-128 52z"/>
<path d="M1048 803 l-3 -68 -37 -9 c-37 -9 -38 -10 -38 -58 l0 -48 40 0 40 0
0 -122 c0 -137 7 -160 59 -195 26 -17 48 -23 92 -23 83 0 89 4 89 61 0 48 -1
49 -31 49 -64 0 -69 10 -69 125 l0 105 50 0 51 0 -3 58 -3 57 -47 3 -47 3 -3
62 -3 62 -67 3 -67 3 -3 -68z"/>
<path d="M785 728 c-3 -8 -4 -108 -3 -223 l3 -210 70 0 70 0 0 220 0 220 -68
3 c-49 2 -69 -1 -72 -10z"/>
<path d="M1892 546 l3 -196 32 -32 c30 -30 39 -33 107 -36 58 -3 83 0 120 16
37 17 46 18 46 6 0 -10 13 -14 50 -14 l50 0 0 225 0 226 -67 -3 -68 -3 -3
-162 -2 -161 -32 -11 c-38 -13 -58 -14 -78 -1 -12 7 -16 42 -20 172 l-5 163
-68 3 -68 3 3 -195z"/>
</g>
</svg>
